<?xml version="1.0" encoding="utf-8"?>
<?xml-stylesheet type="text/xsl" href="rss1.xsl"?>
<rss version="2.0" xmlns:atom="http://www.w3.org/2005/Atom" xmlns:content="http://purl.org/rss/1.0/modules/content/" xmlns:dc="http://purl.org/dc/elements/1.1/" xmlns:media="http://search.yahoo.com/mrss/">
<channel>
 <title>Getty</title>
 <link>http://www.gettyimg.com/</link>
 <atom:link href="http://www.gettyimg.com/" rel="self" type="application/rss+xml" />

 
                <item>
                <title><![CDATA[【Albums (lossless)】(Dolby Atmos) - Brian Eno - Foreverandevernomore - [MLP Lossless Dolby Atmos 16 ch - 7.1 ch TrueHD core 24bit 48kHz]]]></title>
                <link><![CDATA[https://sharemania.us/threads/dolby-atmos-brian-eno-foreverandevernomore-mlp-lossless-dolby-atmos-16-ch-7-1-ch-truehd-core-24bit-48khz.251324/]]></link>
                <description><![CDATA[<article>
<blockquote class="messageText SelectQuoteContainer ugc baseHtml">
Apologies if this is not kosher, but this is a bit of a cross post with another thread i made in the lossy albums section. Because i wanted to keep the 9 albums from the same artist consolidated in one thread and 8 of the 9 were lossy dolby atmos i included a lossless album in that thread. But i figured for better clarity to folks who maybe only have interest in true lossless and may not view the lossy forum i should also put this album available in the proper forum.<br>
<br>
<b>Brian Eno - Foreverandevernomore<br>
Released: 14 October 2022<br>
Genre: Electronic - Ambient - Alternative<br>
<br>
Format / Quality: m4a / MLP Lossless Dolby Atmos 16 channel with 7.1 channel TrueHD core 24bit 48kHz – 3300 – 4000 kbps<br>
<br>
<br>
<img src="https://i.imgur.com/e0Rh4Ff.jpeg" class="bbCodeImage LbImage" alt="[​IMG]" data-url="https://i.imgur.com/e0Rh4Ff.jpeg" style=""><br>
<br>
<br>
</b>
<div class="ToggleTriggerAnchor bbCodeSpoilerContainer">
<button type="button" class="button bbCodeSpoilerButton ToggleTrigger Tooltip JsOnly" data-target="> .SpoilerTarget"><span>Spoiler: <span class="SpoilerTitle">Tracklist - Foreverandevernomore</span></span></button>
<div class="SpoilerTarget bbCodeSpoilerText">1. "Who Gives a Thought" 3:59<br>
2. "We Let It In" 3:28<br>
3. "Icarus or Blériot" 4:23<br>
4. "Garden of Stars" 4:19<br>
5. "Inclusion" 4:55<br>
6. "There Were Bells" 4:52<br>
7. "Sherry" 3:25<br>
8. "I'm Hardly Me" 3:50<br>
9. "These Small Noises" 3:22<br>
10. "Making Gardens Out of Silence" 8:21<br>
<b><br>
</b></div>
</div><b><br>
<br>
<br>
<div class="ToggleTriggerAnchor bbCodeSpoilerContainer">
<button type="button" class="button bbCodeSpoilerButton ToggleTrigger Tooltip JsOnly" data-target="> .SpoilerTarget"><span>Spoiler: <span class="SpoilerTitle">Mediainfo - Foreverandevernomore</span></span></button>
<div class="SpoilerTarget bbCodeSpoilerText">General<br>
<br>
Complete name : F:\BLURAY MUSIC\0_Audio Only\0_ATMOS\Brian Eno - Dolby Atmos\Foreverandevernomore (Atmos)\01 - Who Gives A Thought.m4a<br>
<br>
Format : MPEG-4<br>
<br>
Format profile : Base Media<br>
<br>
Codec ID : isom (isom/dby1/iso2/mp41)<br>
<br>
File size : 165 MiB<br>
<br>
Duration : 4 min 0 s<br>
<br>
Overall bit rate mode : Variable<br>
<br>
Overall bit rate : 5 765 kb/s<br>
<br>
Album : Foreverandevernomore (Atmos with TrueHD)<br>
<br>
Track name : Who Gives A Thought<br>
<br>
Track name/Position : 1<br>
<br>
Performer : Brian Eno<br>
<br>
Recorded date : 2022<br>
<br>
Writing application : Lavf59.16.100<br>
<br>
Cover : Yes<br>
<br>
WWW : <a href="https://www.discogs.com/release/24829553-Brian-Eno-Foreverandevernomore" target="_blank" class="externalLink" rel="nofollow">https://www.discogs.com/release/24829553-Brian-Eno-Foreverandevernomore</a><br>
<br>
STYLE : Ambient, Minimal<br>
<br>
MEDIATYPE : Blu-ray (Blu-ray Audio, Album, Limited Edition, Stereo, Multichannel)<br>
<br>
DISCOGS_RELEASE_ID : 24829553<br>
<br>
COUNTRY : Worldwide<br>
<br>
CATALOGNUMBER : 4831236, 00602448312365, 4831236, 00602448312365<br>
<br>
pub : Opal Records, Opal Records, UMC, UMC<br>
<br>
<br>
Audio<br>
<br>
ID : 1<br>
<br>
Format : MLP FBA 16-ch<br>
<br>
Format/Info : Meridian Lossless Packing FBA with 16-channel presentation<br>
<br>
Commercial name : Dolby TrueHD with Dolby Atmos<br>
<br>
Codec ID : mlpa<br>
<br>
Duration : 4 min 0 s<br>
<br>
Bit rate mode : Variable<br>
<br>
Bit rate : 5 719 kb/s<br>
<br>
Maximum bit rate : 633 kb/s<br>
<br>
Channel(s) : 8 channels<br>
<br>
Channel layout : L R C LFE Ls Rs Lb Rb<br>
<br>
Sampling rate : 48.0 kHz<br>
<br>
Frame rate : 1 200.000 FPS (40 SPF)<br>
<br>
Compression mode : Lossless<br>
<br>
Stream size : 164 MiB (99%)<br>
<br>
Title : Surround 7.1<br>
<br>
Language : English<br>
<br>
Default : Yes<br>
<br>
Alternate group : 1<br>
<br>
Number of dynamic objects : 13<br>
<br>
Bed channel count : 1 channel<br>
<br>
Bed channel configuration : LFE</div>
</div><br>
<br>
Foreverandevernomore<br>
<br>
<div class="bbCodeBlock bbCodeVfcHH HiddenContent">
<div class="attribution type">Hidden Content:</div>
<blockquote>You must reply before you can see the hidden data contained here.</blockquote>
</div>
<div class="bbCodeBlock bbCodeVfcHH HiddenContent">
<div class="attribution type">Hidden Content:</div>
<blockquote>You must reply before you can see the hidden data contained here.</blockquote>
</div>
<div class="bbCodeBlock bbCodeVfcHH HiddenContent">
<div class="attribution type">Hidden Content:</div>
<blockquote>You must either reply or click 'Like' to see the hidden information contained here.</blockquote>
</div></b>
<div class="messageTextEndMarker">&nbsp;</div>
</blockquote>
</article>]]></description>
                <author><![CDATA[schism]]></author>
                </item>

                
                <item>
                <title><![CDATA[【HD Live Performances】HDTV - Céline Dion - Hymne à l'amour - The 43rd Annual American Music Awards S01E43 22Nov2015 720p60fps Backhaul FLAC 5.1 MPEG2-TrollHD]]></title>
                <link><![CDATA[https://sharemania.us/threads/c%C3%A9line-dion-hymne-%C3%A0-lamour-the-43rd-annual-american-music-awards-s01e43-22nov2015-720p60fps-backhaul-flac-5-1-mpeg2-trollhd.251319/]]></link>
                <description><![CDATA[<article>
<blockquote class="messageText SelectQuoteContainer ugc baseHtml">
<a href="https://sharemania.us/threads/celine-dion-american-music-awards-2015-lhymne-a-lamour-for-the-paris-victims-feed.251304/#post-5858916" class="internalLink">https://sharemania.us/threads/celin...r-the-paris-victims-feed.251304/#post-5858916</a><br>
<br>
<img src="https://iili.io/dTBU4OQ.png" class="bbCodeImage LbImage" alt="[​IMG]" data-url="https://iili.io/dTBU4OQ.png" style=""><br>
<div style="text-align: center">
<div class="bbCodeBlock bbCodeVfcHH HiddenContent">
<div class="attribution type">Hidden Content:</div>
<blockquote>You must either reply or click 'Like' to see the hidden information contained here.</blockquote>
</div></div>
<div class="messageTextEndMarker">&nbsp;</div>
</blockquote>
</article>]]></description>
                <author><![CDATA[SCANDAL]]></author>
                </item>

                
                <item>
                <title><![CDATA[【MTV HD】CC - Twenty One Pilots - Paladin Strait [MTV Live US 1080p HDTV DD5.1 H.264]]]></title>
                <link><![CDATA[https://sharemania.us/threads/twenty-one-pilots-paladin-strait-mtv-live-us-1080p-hdtv-dd5-1-h-264.251323/]]></link>
                <description><![CDATA[<article>
<blockquote class="messageText SelectQuoteContainer ugc baseHtml">
<img src="https://images2.imgbox.com/94/ab/dj8DYhMX_o.jpg" class="bbCodeImage LbImage" alt="[​IMG]" data-url="https://images2.imgbox.com/94/ab/dj8DYhMX_o.jpg" style=""><br>
<div class="bbCodeBlock bbCodeVfcHH HiddenContent">
<div class="attribution type">Hidden Content:</div>
<blockquote>You must either reply or click 'Like' to see the hidden information contained here.</blockquote>
</div><b>Password: sharemania</b>
<div class="messageTextEndMarker">&nbsp;</div>
</blockquote>
</article>]]></description>
                <author><![CDATA[iwantmymtv]]></author>
                </item>

                
                <item>
                <title><![CDATA[【HD Live Performances】WEB-DL - Nickelodeon Kids' Choice Awards (2024) 1080p Amazon WEB-DL DDP2.0 H.264-LAZY]]></title>
                <link><![CDATA[https://sharemania.us/threads/nickelodeon-kids-choice-awards-2024-1080p-amazon-web-dl-ddp2-0-h-264-lazy.251322/]]></link>
                <description><![CDATA[<article>
<blockquote class="messageText SelectQuoteContainer ugc baseHtml">
Nickelodeon Kids' Choice Awards 2024:<img src="https://blogger.googleusercontent.com/img/b/R29vZ2xl/AVvXsEi78_mYYRSOvDT5jSPuHfstUyr_P6c7s9bsstT8t43YBJswImjpE8aWcfKff__zlGH9mjYDSNxmFczdAyDMHDjCiftkQ4wwVLFphStt26rgfCtvrksS_Ty8lPkWXhZeom7Duj_cH1kZnGt2OEkjPshmu6RenNlDUo9bL0SFG4lF8cIGcthP-NG8/s960/kca-2024_2.jpeg" class="bbCodeImage LbImage" alt="[​IMG]" data-url="https://blogger.googleusercontent.com/img/b/R29vZ2xl/AVvXsEi78_mYYRSOvDT5jSPuHfstUyr_P6c7s9bsstT8t43YBJswImjpE8aWcfKff__zlGH9mjYDSNxmFczdAyDMHDjCiftkQ4wwVLFphStt26rgfCtvrksS_Ty8lPkWXhZeom7Duj_cH1kZnGt2OEkjPshmu6RenNlDUo9bL0SFG4lF8cIGcthP-NG8/s960/kca-2024_2.jpeg" style=""> <br>
<br>
<div class="bbCodeBlock bbCodeQuote">
<aside>
<blockquote class="quoteContainer"><div class="quote"><i><b>Synopsis:</b></i><br>
It's time to dive into the biggest award show party of the summer: the 2024 Kids' Choice Awards! Join SpongeBob, Patrick, and their friends in Bikini Bottom for a slime-tastic time featuring your favorite music, film, television, and social stars.</div><div class="quoteExpand">Click to expand...</div></blockquote>
</aside>
</div>
<div class="ToggleTriggerAnchor bbCodeSpoilerContainer">
<button type="button" class="button bbCodeSpoilerButton ToggleTrigger Tooltip JsOnly" data-target="> .SpoilerTarget"><span>Spoiler: <span class="SpoilerTitle">MediaInfo</span></span></button>
<div class="SpoilerTarget bbCodeSpoilerText">General<br>
Unique ID : 214448720996319341508351435563805893884 (0xA1555242B2C4C29CFEC746A07AA6E4FC)<br>
Complete name : Nickelodeon.Kids.Choice.Awards.2024.1080p.AMZN.WEB-DL.DDP2.0.H.264-LAZY.mkv<br>
Format : Matroska<br>
Format version : Version 4<br>
File size : 4.23 GiB<br>
Duration : 1 h 0 min<br>
Overall bit rate : 10.0 Mb/s<br>
Encoded date : UTC 2024-07-28 19:39:21<br>
Writing application : mkvmerge v86.0 ('Winter') 64-bit<br>
Writing library : libebml v1.4.5 + libmatroska v1.7.1<br>
<br>
Video<br>
ID : 1<br>
Format : AVC<br>
Format/Info : Advanced Video Codec<br>
Format profile : High@L4<br>
Format settings : CABAC / 4 Ref Frames<br>
Format settings, CABAC : Yes<br>
Format settings, Reference frames : 4 frames<br>
Codec ID : V_MPEG4/ISO/AVC<br>
Duration : 1 h 0 min<br>
Bit rate mode : Constant<br>
Bit rate : 10 000 kb/s<br>
Width : 1 920 pixels<br>
Height : 1 080 pixels<br>
Display aspect ratio : 16:9<br>
Frame rate mode : Constant<br>
Frame rate : 29.970 (30000/1001) FPS<br>
Color space : YUV<br>
Chroma subsampling : 4:2:0<br>
Bit depth : 8 bits<br>
Scan type : Progressive<br>
Bits/(Pixel*Frame) : 0.161<br>
Stream size : 4.14 GiB (98%)<br>
Default : Yes<br>
Forced : No<br>
Color range : Limited<br>
Color primaries : BT.709<br>
Transfer characteristics : BT.709<br>
Matrix coefficients : BT.709<br>
<br>
Audio<br>
ID : 2<br>
Format : E-AC-3<br>
Format/Info : Enhanced AC-3<br>
Commercial name : Dolby Digital Plus<br>
Codec ID : A_EAC3<br>
Duration : 1 h 0 min<br>
Bit rate mode : Constant<br>
Bit rate : 224 kb/s<br>
Channel(s) : 2 channels<br>
Channel layout : L R<br>
Sampling rate : 48.0 kHz<br>
Frame rate : 31.250 FPS (1536 SPF)<br>
Compression mode : Lossy<br>
Stream size : 97.0 MiB (2%)<br>
Language : English<br>
Service kind : Complete Main<br>
Default : Yes<br>
Forced : No<br>
<br>
Text<br>
ID : 3<br>
Format : UTF-8<br>
Codec ID : S_TEXT/UTF8<br>
Codec ID/Info : UTF-8 Plain Text<br>
Duration : 59 min 28 s<br>
Bit rate : 95 b/s<br>
Count of elements : 1370<br>
Stream size : 41.8 KiB (0%)<br>
Title : SDH<br>
Language : English<br>
Default : No<br>
Forced : No</div>
</div><br>
Screenshots:<br>
<img src="https://ptpimg.me/0t5y4j.jpg" class="bbCodeImage LbImage" alt="[​IMG]" data-url="https://ptpimg.me/0t5y4j.jpg" style=""> <br>
<div class="bbCodeBlock bbCodeVfcHH HiddenContent">
<div class="attribution type">Hidden Content:</div>
<blockquote>You must either reply or click 'Like' to see the hidden information contained here.</blockquote>
</div>
<div class="messageTextEndMarker">&nbsp;</div>
</blockquote>
</article>]]></description>
                <author><![CDATA[LazyRips]]></author>
                </item>

                
                <item>
                <title><![CDATA[【HD Live Performances】FEED - Pentatonix &amp; Orchestra - Star Wars - The 43rd Annual American Music Awards S01E43 22Nov2015 720p60fps Backhaul FLAC 5.1 MPEG2-Trol]]></title>
                <link><![CDATA[https://sharemania.us/threads/pentatonix-orchestra-star-wars-the-43rd-annual-american-music-awards-s01e43-22nov2015-720p60fps-backhaul-flac-5-1-mpeg2-trol.251321/]]></link>
                <description><![CDATA[<article>
<blockquote class="messageText SelectQuoteContainer ugc baseHtml">
<img src="https://iili.io/dTBykuI.png" class="bbCodeImage LbImage" alt="[​IMG]" data-url="https://iili.io/dTBykuI.png" style=""><br>
<div style="text-align: center">
<div class="bbCodeBlock bbCodeVfcHH HiddenContent">
<div class="attribution type">Hidden Content:</div>
<blockquote>You must either reply or click 'Like' to see the hidden information contained here.</blockquote>
</div></div>
<div class="messageTextEndMarker">&nbsp;</div>
</blockquote>
</article>]]></description>
                <author><![CDATA[SCANDAL]]></author>
                </item>

                
                <item>
                <title><![CDATA[【Albums (lossy)】Dolby Atmos - Brian Eno - 9 Albums Dolby Atmos Collection - 1 Album Lossless Atmos TrueHD -8 Albums Dolby Atmos [E-AC-3 JOC 768kbps 16bit/48kHz]]]></title>
                <link><![CDATA[https://sharemania.us/threads/brian-eno-9-albums-dolby-atmos-collection-1-album-lossless-atmos-truehd-8-albums-dolby-atmos-e-ac-3-joc-768kbps-16bit-48khz.251320/]]></link>
                <description><![CDATA[<article>
<blockquote class="messageText SelectQuoteContainer ugc baseHtml">
<b>Brian Eno - Foreverandevernomore<br>
Released: 14 October 2022<br>
Genre: Electronic - Ambient - Alternative<br>
<br>
Format / Quality: m4a / MLP Lossless Dolby Atmos 16 channel with 7.1 channel TrueHD core 24bit 48kHz – 3300 – 4000 kbps<br>
<br>
<br>
<img src="https://i.imgur.com/e0Rh4Ff.jpeg" class="bbCodeImage LbImage" alt="[​IMG]" data-url="https://i.imgur.com/e0Rh4Ff.jpeg" style=""> <br>
<br>
<br>
</b>
<div class="ToggleTriggerAnchor bbCodeSpoilerContainer">
<button type="button" class="button bbCodeSpoilerButton ToggleTrigger Tooltip JsOnly" data-target="> .SpoilerTarget"><span>Spoiler: <span class="SpoilerTitle">Tracklist - Foreverandevernomore</span></span></button>
<div class="SpoilerTarget bbCodeSpoilerText">1. "Who Gives a Thought" 3:59<br>
2. "We Let It In" 3:28<br>
3. "Icarus or Blériot" 4:23<br>
4. "Garden of Stars" 4:19<br>
5. "Inclusion" 4:55<br>
6. "There Were Bells" 4:52<br>
7. "Sherry" 3:25<br>
8. "I'm Hardly Me" 3:50<br>
9. "These Small Noises" 3:22<br>
10. "Making Gardens Out of Silence" 8:21<br>
<b><br>
</b></div>
</div><b><br>
<br>
<br>
<div class="ToggleTriggerAnchor bbCodeSpoilerContainer">
<button type="button" class="button bbCodeSpoilerButton ToggleTrigger Tooltip JsOnly" data-target="> .SpoilerTarget"><span>Spoiler: <span class="SpoilerTitle">Mediainfo - Foreverandevernomore</span></span></button>
<div class="SpoilerTarget bbCodeSpoilerText">General<br>
<br>
Complete name : F:\BLURAY MUSIC\0_Audio Only\0_ATMOS\Brian Eno - Dolby Atmos\Foreverandevernomore (Atmos)\01 - Who Gives A Thought.m4a<br>
<br>
Format : MPEG-4<br>
<br>
Format profile : Base Media<br>
<br>
Codec ID : isom (isom/dby1/iso2/mp41)<br>
<br>
File size : 165 MiB<br>
<br>
Duration : 4 min 0 s<br>
<br>
Overall bit rate mode : Variable<br>
<br>
Overall bit rate : 5 765 kb/s<br>
<br>
Album : Foreverandevernomore (Atmos with TrueHD)<br>
<br>
Track name : Who Gives A Thought<br>
<br>
Track name/Position : 1<br>
<br>
Performer : Brian Eno<br>
<br>
Recorded date : 2022<br>
<br>
Writing application : Lavf59.16.100<br>
<br>
Cover : Yes<br>
<br>
WWW : <a href="https://www.discogs.com/release/24829553-Brian-Eno-Foreverandevernomore" target="_blank" class="externalLink" rel="nofollow">https://www.discogs.com/release/24829553-Brian-Eno-Foreverandevernomore</a><br>
<br>
STYLE : Ambient, Minimal<br>
<br>
MEDIATYPE : Blu-ray (Blu-ray Audio, Album, Limited Edition, Stereo, Multichannel)<br>
<br>
DISCOGS_RELEASE_ID : 24829553<br>
<br>
COUNTRY : Worldwide<br>
<br>
CATALOGNUMBER : 4831236, 00602448312365, 4831236, 00602448312365<br>
<br>
pub : Opal Records, Opal Records, UMC, UMC<br>
<br>
<br>
Audio<br>
<br>
ID : 1<br>
<br>
Format : MLP FBA 16-ch<br>
<br>
Format/Info : Meridian Lossless Packing FBA with 16-channel presentation<br>
<br>
Commercial name : Dolby TrueHD with Dolby Atmos<br>
<br>
Codec ID : mlpa<br>
<br>
Duration : 4 min 0 s<br>
<br>
Bit rate mode : Variable<br>
<br>
Bit rate : 5 719 kb/s<br>
<br>
Maximum bit rate : 633 kb/s<br>
<br>
Channel(s) : 8 channels<br>
<br>
Channel layout : L R C LFE Ls Rs Lb Rb<br>
<br>
Sampling rate : 48.0 kHz<br>
<br>
Frame rate : 1 200.000 FPS (40 SPF)<br>
<br>
Compression mode : Lossless<br>
<br>
Stream size : 164 MiB (99%)<br>
<br>
Title : Surround 7.1<br>
<br>
Language : English<br>
<br>
Default : Yes<br>
<br>
Alternate group : 1<br>
<br>
Number of dynamic objects : 13<br>
<br>
Bed channel count : 1 channel<br>
<br>
Bed channel configuration : LFE</div>
</div><br>
<br>
Foreverandevernomore<br>
<br>
<div class="bbCodeBlock bbCodeVfcHH HiddenContent">
<div class="attribution type">Hidden Content:</div>
<blockquote>You must reply before you can see the hidden data contained here.</blockquote>
</div>
<div class="bbCodeBlock bbCodeVfcHH HiddenContent">
<div class="attribution type">Hidden Content:</div>
<blockquote>You must reply before you can see the hidden data contained here.</blockquote>
</div>
<div class="bbCodeBlock bbCodeVfcHH HiddenContent">
<div class="attribution type">Hidden Content:</div>
<blockquote>You must either reply or click 'Like' to see the hidden information contained here.</blockquote>
</div><br>
----------------------------------------------------------------------------------------------<br>
<br>
<br>
Brian Eno – Another Green World<br>
Released: 14 November 1975<br>
Genre: Art pop – ambient - art rock - electronic pop – minimalist - ambient pop - avant-pop<br>
<br>
Format / Quality: m4a- E-AC-3 JOC 768kbps 16bit/48kHz – 5.1 DD+ Core<br>
<br>
<br>
<img src="https://i.imgur.com/kTeY8to.jpeg" class="bbCodeImage LbImage" alt="[​IMG]" data-url="https://i.imgur.com/kTeY8to.jpeg" style=""> <br>
<br>
<br>
<div class="ToggleTriggerAnchor bbCodeSpoilerContainer">
<button type="button" class="button bbCodeSpoilerButton ToggleTrigger Tooltip JsOnly" data-target="> .SpoilerTarget"><span>Spoiler: <span class="SpoilerTitle">Tracklist – Another Green World</span></span></button>
<div class="SpoilerTarget bbCodeSpoilerText">Side one<br>
<br>
No.<br>
<br>
Title<br>
<br>
Length<br>
<br>
1.<br>
<br>
"Sky Saw"<br>
<br>
3:25<br>
<br>
2.<br>
<br>
"Over Fire Island"<br>
<br>
1:49<br>
<br>
3.<br>
<br>
"St. Elmo's Fire"<br>
<br>
3:02<br>
<br>
4.<br>
<br>
"In Dark Trees"<br>
<br>
2:29<br>
<br>
5.<br>
<br>
"The Big Ship"<br>
<br>
3:01<br>
<br>
6.<br>
<br>
"I'll Come Running"<br>
<br>
3:48<br>
<br>
7.<br>
<br>
"Another Green World"<br>
<br>
1:38<br>
<br>
<br>
Side two<br>
<br>
No. Title Length<br>
<br>
8. "Sombre Reptiles" 2:26<br>
<br>
9. "Little Fishes" 1:30<br>
<br>
10. "Golden Hours" 4:01<br>
<br>
11. "Becalmed" 3:56<br>
<br>
12. "Zawinul/Lava" 3:00<br>
<br>
13. "Everything Merges with the Night" 3:59<br>
<br>
14. "Spirits Drifting" 2:36</div>
</div><br>
<br>
<div class="ToggleTriggerAnchor bbCodeSpoilerContainer">
<button type="button" class="button bbCodeSpoilerButton ToggleTrigger Tooltip JsOnly" data-target="> .SpoilerTarget"><span>Spoiler: <span class="SpoilerTitle">Mediainfo – Remaining Albums Sample</span></span></button>
<div class="SpoilerTarget bbCodeSpoilerText">General<br>
<br>
Complete name : F:\BLURAY MUSIC\0_Audio Only\0_ATMOS\Brian Eno - Dolby Atmos\Another Green World\01. Sky Saw.m4a<br>
<br>
Format : MPEG-4<br>
<br>
Format profile : Base Media / Version 2<br>
<br>
Codec ID : mp42 (isom/M4A /mp42/dby1)<br>
<br>
File size : 19.4 MiB<br>
<br>
Duration : 3 min 27 s<br>
<br>
Overall bit rate mode : Constant<br>
<br>
Overall bit rate : 783 kb/s<br>
<br>
Album : Another Green World<br>
<br>
Album/Performer : Brian Eno<br>
<br>
Part/Position : 1<br>
<br>
Part/Total : 1<br>
<br>
Track name : Sky Saw<br>
<br>
Track name/Position : 1<br>
<br>
Track name/Total : 14<br>
<br>
Performer : Brian Eno<br>
<br>
Composer : Brian Eno<br>
<br>
Genre : Prog-Rock/Art Rock<br>
<br>
Recorded date : 1975-11-14<br>
<br>
Encoded date : 2024-07-28 21:39:09 UTC<br>
<br>
Tagged date : 2024-07-28 21:39:09 UTC<br>
<br>
ISRC : GBAAA0400074<br>
<br>
Copyright : ℗ 2004 Virgin Records Limited<br>
<br>
Cover : Yes<br>
<br>
Rating : None<br>
<br>
com : Brian Eno<br>
<br>
UPC : 00724357729154<br>
<br>
trk : 1<br>
<br>
<br>
Audio<br>
<br>
ID : 1<br>
<br>
Format : E-AC-3 JOC<br>
<br>
Format/Info : Enhanced AC-3 with Joint Object Coding<br>
<br>
Commercial name : Dolby Digital Plus with Dolby Atmos<br>
<br>
Codec ID : ec-3<br>
<br>
Duration : 3 min 27 s<br>
<br>
Bit rate mode : Constant<br>
<br>
Bit rate : 768 kb/s<br>
<br>
Maximum bit rate : 811 kb/s<br>
<br>
Channel(s) : 6 channels<br>
<br>
Channel layout : L R C LFE Ls Rs<br>
<br>
Sampling rate : 48.0 kHz<br>
<br>
Frame rate : 31.250 FPS (1536 SPF)<br>
<br>
Compression mode : Lossy<br>
<br>
Stream size : 19.0 MiB (98%)<br>
<br>
Title : Sky Saw<br>
<br>
Service kind : Complete Main<br>
<br>
Default : Yes<br>
<br>
Alternate group : 1<br>
<br>
Encoded date : 2024-07-28 21:39:09 UTC<br>
<br>
Tagged date : 2024-07-28 21:39:09 UTC<br>
<br>
Complexity index : 16<br>
<br>
Number of dynamic objects : 15<br>
<br>
Bed channel count : 1 channel<br>
<br>
Bed channel configuration : LFE<br>
<br>
Dialog Normalization : -19 dB<br>
<br>
compr : -0.28 dB<br>
<br>
dmixmod : Lo/Ro<br>
<br>
ltrtcmixlev : -3.0 dB<br>
<br>
ltrtsurmixlev : -3.0 dB<br>
<br>
lorocmixlev : -3.0 dB<br>
<br>
lorosurmixlev : -3.0 dB<br>
<br>
dialnorm_Average : -19 dB<br>
<br>
dialnorm_Minimum : -19 dB<br>
<br>
dialnorm_Maximum : -19 dB</div>
</div><br>
<br>
Another Green World<br>
<br>
<div class="bbCodeBlock bbCodeVfcHH HiddenContent">
<div class="attribution type">Hidden Content:</div>
<blockquote>You must reply before you can see the hidden data contained here.</blockquote>
</div>
<div class="bbCodeBlock bbCodeVfcHH HiddenContent">
<div class="attribution type">Hidden Content:</div>
<blockquote>You must reply before you can see the hidden data contained here.</blockquote>
</div>
<div class="bbCodeBlock bbCodeVfcHH HiddenContent">
<div class="attribution type">Hidden Content:</div>
<blockquote>You must either reply or click 'Like' to see the hidden information contained here.</blockquote>
</div><br>
----------------------------------------------------------------------------------------------<br>
<br>
<br>
Brian Eno – Drums Between The Bells<br>
Released: 4 July 2011<br>
Genre: Electronic, experimental, ambient, spoken word<br>
<br>
Format / Quality: m4a- E-AC-3 JOC 768kbps 16bit/48kHz – 5.1 DD+ Core<br>
<br>
<br>
<img src="https://i.imgur.com/HLfaAs5.jpeg" class="bbCodeImage LbImage" alt="[​IMG]" data-url="https://i.imgur.com/HLfaAs5.jpeg" style=""> <br>
<br>
<br>
<div class="ToggleTriggerAnchor bbCodeSpoilerContainer">
<button type="button" class="button bbCodeSpoilerButton ToggleTrigger Tooltip JsOnly" data-target="> .SpoilerTarget"><span>Spoiler: <span class="SpoilerTitle">Tracklist – Drums Between the Bells</span></span></button>
<div class="SpoilerTarget bbCodeSpoilerText">"Bless This Space"<br>
<br>
"Glitch"<br>
<br>
"Dreambirds"<br>
<br>
"Pour It Out"<br>
<br>
"Seedpods"<br>
<br>
"The Real"<br>
<br>
"The Airman"<br>
<br>
"Fierce Aisles of Light"<br>
<br>
"As If Your Eyes Were Partly Closed As If You Honed the Swirl Within Them and Offered Me the World"<br>
<br>
"A Title"<br>
<br>
"Sounds Alien"<br>
<br>
"Dow"<br>
<br>
"Instant Gold" (iTunes Store bonus track)<br>
<br>
"Multimedia"<br>
<br>
"Cloud 4"<br>
<br>
"Breath of Crows"</div>
</div><br>
<br>
Drums Between The Bells <br>
<br>
<div class="bbCodeBlock bbCodeVfcHH HiddenContent">
<div class="attribution type">Hidden Content:</div>
<blockquote>You must reply before you can see the hidden data contained here.</blockquote>
</div>
<div class="bbCodeBlock bbCodeVfcHH HiddenContent">
<div class="attribution type">Hidden Content:</div>
<blockquote>You must reply before you can see the hidden data contained here.</blockquote>
</div>
<div class="bbCodeBlock bbCodeVfcHH HiddenContent">
<div class="attribution type">Hidden Content:</div>
<blockquote>You must either reply or click 'Like' to see the hidden information contained here.</blockquote>
</div><br>
----------------------------------------------------------------------------------------------<br>
<br>
<br>
Brian Eno – Lux<br>
Released: 13 November 2012<br>
Genre: Ambient, electronic<br>
<br>
Format / Quality: m4a- E-AC-3 JOC 768kbps 16bit/48kHz – 5.1 DD+ Core<br>
<br>
<br>
<img src="https://i.imgur.com/6ZuoSLn.jpeg" class="bbCodeImage LbImage" alt="[​IMG]" data-url="https://i.imgur.com/6ZuoSLn.jpeg" style=""> <br>
<br>
<br>
</b>
<div class="ToggleTriggerAnchor bbCodeSpoilerContainer">
<button type="button" class="button bbCodeSpoilerButton ToggleTrigger Tooltip JsOnly" data-target="> .SpoilerTarget"><span>Spoiler: <span class="SpoilerTitle">Tracklist – Lux</span></span></button>
<div class="SpoilerTarget bbCodeSpoilerText"><ol>
<li><b>"LUX 1" – 19:22</b></li>
<li><b>"LUX 2" – 18:14</b></li>
<li><b>"LUX 3" – 19:19</b></li>
<li><b>"LUX 4" – 18:28</b></li>
</ol></div>
</div><b><br>
<br>
Lux<br>
<br>
<div class="bbCodeBlock bbCodeVfcHH HiddenContent">
<div class="attribution type">Hidden Content:</div>
<blockquote>You must reply before you can see the hidden data contained here.</blockquote>
</div>
<div class="bbCodeBlock bbCodeVfcHH HiddenContent">
<div class="attribution type">Hidden Content:</div>
<blockquote>You must reply before you can see the hidden data contained here.</blockquote>
</div>
<div class="bbCodeBlock bbCodeVfcHH HiddenContent">
<div class="attribution type">Hidden Content:</div>
<blockquote>You must either reply or click 'Like' to see the hidden information contained here.</blockquote>
</div><br>
----------------------------------------------------------------------------------------------<br>
<br>
<br>
Brian Eno – Reflection<br>
Released: 1 January 2017<br>
Genre: Ambient,<br>
<br>
Format / Quality: m4a- E-AC-3 JOC 768kbps 16bit/48kHz – 5.1 DD+ Core<br>
<br>
<br>
<img src="https://i.imgur.com/2b8juMe.jpeg" class="bbCodeImage LbImage" alt="[​IMG]" data-url="https://i.imgur.com/2b8juMe.jpeg" style=""> <br>
<br>
<br>
<div class="ToggleTriggerAnchor bbCodeSpoilerContainer">
<button type="button" class="button bbCodeSpoilerButton ToggleTrigger Tooltip JsOnly" data-target="> .SpoilerTarget"><span>Spoiler: <span class="SpoilerTitle">Tracklist – Reflection</span></span></button>
<div class="SpoilerTarget bbCodeSpoilerText">1.<br>
<br>
"Reflection"</div>
</div><br>
<br>
Reflection <br>
<br>
<div class="bbCodeBlock bbCodeVfcHH HiddenContent">
<div class="attribution type">Hidden Content:</div>
<blockquote>You must reply before you can see the hidden data contained here.</blockquote>
</div>
<div class="bbCodeBlock bbCodeVfcHH HiddenContent">
<div class="attribution type">Hidden Content:</div>
<blockquote>You must reply before you can see the hidden data contained here.</blockquote>
</div>
<div class="bbCodeBlock bbCodeVfcHH HiddenContent">
<div class="attribution type">Hidden Content:</div>
<blockquote>You must either reply or click 'Like' to see the hidden information contained here.</blockquote>
</div><br>
----------------------------------------------------------------------------------------------<br>
<br>
<br>
Brian Eno – Small Craft On A Milk Sea<br>
Released: 19 October 2010<br>
Genre: Electronic, ambient, experimental rock<br>
<br>
Format / Quality: m4a- E-AC-3 JOC 768kbps 16bit/48kHz – 5.1 DD+ Core<br>
<br>
<br>
<img src="https://i.imgur.com/1WTGifz.jpeg" class="bbCodeImage LbImage" alt="[​IMG]" data-url="https://i.imgur.com/1WTGifz.jpeg" style=""> <br>
<br>
<br>
<div class="ToggleTriggerAnchor bbCodeSpoilerContainer">
<button type="button" class="button bbCodeSpoilerButton ToggleTrigger Tooltip JsOnly" data-target="> .SpoilerTarget"><span>Spoiler: <span class="SpoilerTitle">Tracklist – Small Craft On A Milk Sea</span></span></button>
<div class="SpoilerTarget bbCodeSpoilerText">"Emerald and Lime" – 3:02<br>
<br>
"Complex Heaven" – 3:05<br>
<br>
"Small Craft on a Milk Sea" – 1:49<br>
<br>
"Flint March" – 1:56<br>
<br>
"Horse" – 3:02<br>
<br>
"2 Forms of Anger" – 3:15<br>
<br>
"Bone Jump" – 2:22<br>
<br>
"Dust Shuffle" – 1:54<br>
<br>
"Paleosonic" – 4:25<br>
<br>
"Slow Ice, Old Moon" – 3:25<br>
<br>
"Lesser Heaven" – 3:21<br>
<br>
"Calcium Needles" – 3:25<br>
<br>
"Emerald and Stone" – 2:12<br>
<br>
"Written, Forgotten" – 3:55<br>
<br>
"Late Anthropocene" – 8:09<br>
<br>
"Loose Rein" – 3:17</div>
</div><br>
<br>
Small Craft On A Milk Sea <br>
<br>
<div class="bbCodeBlock bbCodeVfcHH HiddenContent">
<div class="attribution type">Hidden Content:</div>
<blockquote>You must reply before you can see the hidden data contained here.</blockquote>
</div>
<div class="bbCodeBlock bbCodeVfcHH HiddenContent">
<div class="attribution type">Hidden Content:</div>
<blockquote>You must reply before you can see the hidden data contained here.</blockquote>
</div>
<div class="bbCodeBlock bbCodeVfcHH HiddenContent">
<div class="attribution type">Hidden Content:</div>
<blockquote>You must either reply or click 'Like' to see the hidden information contained here.</blockquote>
</div><br>
----------------------------------------------------------------------------------------------<br>
<br>
<br>
Brian Eno – Taking Tiger Mountain By Strategy<br>
Released: November 1974<br>
Genre: Art rock - art pop - avant-pop - experimental rock<br>
<br>
Format / Quality: m4a- E-AC-3 JOC 768kbps 16bit/48kHz – 5.1 DD+ Core<br>
<br>
<br>
<img src="https://i.imgur.com/6BZnJJD.jpeg" class="bbCodeImage LbImage" alt="[​IMG]" data-url="https://i.imgur.com/6BZnJJD.jpeg" style=""> <br>
<br>
<br>
<div class="ToggleTriggerAnchor bbCodeSpoilerContainer">
<button type="button" class="button bbCodeSpoilerButton ToggleTrigger Tooltip JsOnly" data-target="> .SpoilerTarget"><span>Spoiler: <span class="SpoilerTitle">Tracklist – Taking Tiger Mountain By Strategy</span></span></button>
<div class="SpoilerTarget bbCodeSpoilerText">Side A<br>
<br>
No. Title Length<br>
<br>
1. "Burning Airlines Give You So Much More" 3:18<br>
<br>
2. "Back in Judy's Jungle" 5:16<br>
<br>
3. "The Fat Lady of Limbourg" 5:03<br>
<br>
4. "Mother Whale Eyeless" 5:45<br>
<br>
5. "The Great Pretender" 5:11<br>
<br>
Side B<br>
<br>
No. Title Writer(s) Length<br>
<br>
1. "Third Uncle" Eno; arranged by Brian Turrington 4:48<br>
<br>
2. "Put a Straw under Baby" 3:25<br>
<br>
3. "The True Wheel" Eno, Phil Manzanera 5:11<br>
<br>
4. "China My China" 4:44<br>
<br>
5. "Taking Tiger Mountain" 5:32</div>
</div><br>
<br>
Taking Tiger Mountain By Strategy <br>
<br>
<div class="bbCodeBlock bbCodeVfcHH HiddenContent">
<div class="attribution type">Hidden Content:</div>
<blockquote>You must reply before you can see the hidden data contained here.</blockquote>
</div>
<div class="bbCodeBlock bbCodeVfcHH HiddenContent">
<div class="attribution type">Hidden Content:</div>
<blockquote>You must reply before you can see the hidden data contained here.</blockquote>
</div>
<div class="bbCodeBlock bbCodeVfcHH HiddenContent">
<div class="attribution type">Hidden Content:</div>
<blockquote>You must either reply or click 'Like' to see the hidden information contained here.</blockquote>
</div><br>
----------------------------------------------------------------------------------------------<br>
<br>
<br>
Brian Eno – The Ship<br>
Released: 29 April 2016<br>
Genre: Electronic - Ambient<br>
<br>
Format / Quality: m4a- E-AC-3 JOC 768kbps 16bit/48kHz – 5.1 DD+ Core<br>
<br>
<br>
<img src="https://i.imgur.com/F2yFv2k.jpeg" class="bbCodeImage LbImage" alt="[​IMG]" data-url="https://i.imgur.com/F2yFv2k.jpeg" style=""> <br>
<br>
<br>
<div class="ToggleTriggerAnchor bbCodeSpoilerContainer">
<button type="button" class="button bbCodeSpoilerButton ToggleTrigger Tooltip JsOnly" data-target="> .SpoilerTarget"><span>Spoiler: <span class="SpoilerTitle">Tracklist – The Ship</span></span></button>
<div class="SpoilerTarget bbCodeSpoilerText">1. "The Ship" 21:19<br>
<br>
2. "Fickle Sun (I)" 18:03<br>
<br>
3. "Fickle Sun (II) The Hour Is Thin" 2:50<br>
<br>
4. "Fickle Sun (III) I'm Set Free" 5:18</div>
</div><br>
<br>
The Ship <br>
<br>
<div class="bbCodeBlock bbCodeVfcHH HiddenContent">
<div class="attribution type">Hidden Content:</div>
<blockquote>You must reply before you can see the hidden data contained here.</blockquote>
</div>
<div class="bbCodeBlock bbCodeVfcHH HiddenContent">
<div class="attribution type">Hidden Content:</div>
<blockquote>You must reply before you can see the hidden data contained here.</blockquote>
</div>
<div class="bbCodeBlock bbCodeVfcHH HiddenContent">
<div class="attribution type">Hidden Content:</div>
<blockquote>You must either reply or click 'Like' to see the hidden information contained here.</blockquote>
</div><br>
----------------------------------------------------------------------------------------------<br>
<br>
<br>
Brian Eno – The Ship (Remastered 2023)<br>
Released: 29 April 2016<br>
Genre: Electronic - Ambient<br>
<br>
Format / Quality: m4a- E-AC-3 JOC 768kbps 16bit/48kHz – 5.1 DD+ Core<br>
<br>
<br>
<img src="https://i.imgur.com/Q3ZMCPs.jpeg" class="bbCodeImage LbImage" alt="[​IMG]" data-url="https://i.imgur.com/Q3ZMCPs.jpeg" style=""> <br>
<br>
<br>
<div class="ToggleTriggerAnchor bbCodeSpoilerContainer">
<button type="button" class="button bbCodeSpoilerButton ToggleTrigger Tooltip JsOnly" data-target="> .SpoilerTarget"><span>Spoiler: <span class="SpoilerTitle">Tracklist – The Ship (Remastered 2023)</span></span></button>
<div class="SpoilerTarget bbCodeSpoilerText">1. "The Ship" 21:19<br>
<br>
2. "Fickle Sun (I)" 18:03<br>
<br>
3. "Fickle Sun (II) The Hour Is Thin" 2:50<br>
<br>
4. "Fickle Sun (III) I'm Set Free" 5:18</div>
</div><br>
<br>
The Ship (Remastered 2023) <br>
<br>
<div class="bbCodeBlock bbCodeVfcHH HiddenContent">
<div class="attribution type">Hidden Content:</div>
<blockquote>You must reply before you can see the hidden data contained here.</blockquote>
</div>
<div class="bbCodeBlock bbCodeVfcHH HiddenContent">
<div class="attribution type">Hidden Content:</div>
<blockquote>You must reply before you can see the hidden data contained here.</blockquote>
</div>
<div class="bbCodeBlock bbCodeVfcHH HiddenContent">
<div class="attribution type">Hidden Content:</div>
<blockquote>You must either reply or click 'Like' to see the hidden information contained here.</blockquote>
</div></b>
<div class="messageTextEndMarker">&nbsp;</div>
</blockquote>
</article>]]></description>
                <author><![CDATA[schism]]></author>
                </item>

                </channel></rss>